<svg width="25" height="21" viewBox="0 0 25 21" fill="none" xmlns="http://www.w3.org/2000/svg">
<path d="M17.5 0C15.673 0.08635 13.9419 0.84287 12.6375 2.125L12.4875 2.2625L12.3375 2.125C10.954 0.77131 9.098 0.00918 7.1625 0C5.26505 0 3.44513 0.7529 2.10226 2.09343C0.75939 3.43395 0.00331 5.2526 0 7.15C0 11 1.4125 12.8375 7.725 17.825L11.0875 20.45C11.9125 21.1 13.0875 21.1 13.9125 20.45L16.8625 18.15L18.0375 17.225C23.7 12.675 25 10.85 25 7.15C24.9967 5.2526 24.2406 3.43395 22.8977 2.09343C21.5549 0.7529 19.735 0 17.8375 0H17.5Z" fill="white"/>
</svg>